<?xml version="1.0" encoding="utf-8"?>
<!-- Generator: Adobe Illustrator 25.4.1, SVG Export Plug-In . SVG Version: 6.00 Build 0)  -->
<svg version="1.1" id="Layer_1" xmlns="http://www.w3.org/2000/svg" xmlns:xlink="http://www.w3.org/1999/xlink" x="0px" y="0px"
	 viewBox="0 0 77.7 58" style="enable-background:new 0 0 77.7 58;" xml:space="preserve">
<style type="text/css">
	.st0{fill:#636363;}
</style>
<g>
	<path class="st0" d="M7.5,41V17c0-5.5,3.7-8.2,10.4-8.2h8c6.7,0,10.4,2.7,10.4,8.2v24c0.1,5.5-3.7,8.2-10.4,8.2H18
		C11.2,49.2,7.5,46.5,7.5,41z M16,44.6h11.8c5.6,0,7.3-0.4,7.3-3.6s-3.7-2.9-3.7-11.9c0-9.1,3.7-8.2,3.7-12.1c0-3.2-1.7-3.6-7.3-3.6
		H16c-5.6,0-7.3,0.4-7.3,3.6c0,3.3,3.7,3.1,3.7,12.1c0,8.8-3.7,8.7-3.7,11.9C9,44.2,10.4,44.6,16,44.6z"/>
	<path class="st0" d="M43.9,42c0-3.6,2.3-6.7,5.5-9.3l10.4-8.9c4.9-4.1,9.1-2.9,9.1-7.4c0-3.4-1.6-3-6.8-3H45.7V8.8h14.2
		c6.7,0,10.3,2.1,10.3,7.7c0,4-2.4,6.8-5.3,9.2l-10.5,9c-4.9,4.2-9.4,2.7-9.1,7.9c0.2,3.1,2,2,6.8,2h18.1v4.6H54.4
		C47.6,49.2,43.9,47.2,43.9,42z"/>
</g>
</svg>
