<?xml version="1.0" encoding="utf-8"?>
<!-- Generator: Adobe Illustrator 25.4.1, SVG Export Plug-In . SVG Version: 6.00 Build 0)  -->
<svg version="1.1" id="Layer_1" xmlns="http://www.w3.org/2000/svg" xmlns:xlink="http://www.w3.org/1999/xlink" x="0px" y="0px"
	 viewBox="0 0 77.7 58" style="enable-background:new 0 0 77.7 58;" xml:space="preserve">
<style type="text/css">
	.st0{fill:#636363;}
</style>
<g>
	<path class="st0" d="M6.8,41V17c0-5.5,3.7-8.2,10.4-8.2h8c6.7,0,10.4,2.7,10.4,8.2v24c0.1,5.5-3.7,8.2-10.4,8.2h-7.9
		C10.4,49.2,6.8,46.5,6.8,41z M15.3,44.6H27c5.6,0,7.3-0.4,7.3-3.6c0-3.2-3.7-2.9-3.7-11.9c0-9.1,3.7-8.2,3.7-12.1
		c0-3.2-1.7-3.6-7.3-3.6H15.3C9.6,13.4,8,13.8,8,17c0,3.3,3.7,3.1,3.7,12.1C11.7,37.9,8,37.8,8,41C8.2,44.2,9.6,44.6,15.3,44.6z"/>
	<path class="st0" d="M42.6,48.1v-3.4H62c6.1,0,7.6-0.5,7.6-3.7c0-3.3-1.7-3.7-6.9-3.7h-5.3c-6.3,0-10.1-2.6-10.1-8.3
		c0-5.6,3.7-8.3,10.1-8.3h4.4c5.2,0,7.4-0.5,7.4-3.7c0-3.2-1.5-3.7-7.6-3.7H43.8V8.8h15.7c7.4,0,11,2.7,11,8.2
		c0,5.6-3.9,8.3-10.4,8.3h-4.9c-5.2,0-6.6,0.4-6.6,3.7c0,3.3,1.7,3.7,6.6,3.7h5.4c6.5,0,10.4,2.7,10.4,8.3c0,5.5-3.7,8.2-11,8.2
		h-7.6C48,49.2,44.9,48.8,42.6,48.1z"/>
</g>
</svg>
