<?xml version="1.0" encoding="utf-8"?>
<!-- Generator: Adobe Illustrator 25.4.1, SVG Export Plug-In . SVG Version: 6.00 Build 0)  -->
<svg version="1.1" id="Layer_1" xmlns="http://www.w3.org/2000/svg" xmlns:xlink="http://www.w3.org/1999/xlink" x="0px" y="0px"
	 viewBox="0 0 77.7 58" style="enable-background:new 0 0 77.7 58;" xml:space="preserve">
<style type="text/css">
	.st0{fill:#636363;}
</style>
<g>
	<path class="st0" d="M8.2,41V17c0-5.5,3.7-8.2,10.4-8.2h8c6.7,0,10.4,2.7,10.4,8.2v24c0.1,5.5-3.7,8.2-10.4,8.2h-7.9
		C11.8,49.2,8.2,46.5,8.2,41z M16.7,44.6h11.8c5.6,0,7.3-0.4,7.3-3.6c0-3.2-3.7-2.9-3.7-11.9c0-9.1,3.7-8.2,3.7-12.1
		c0-3.2-1.7-3.6-7.3-3.6H16.7c-5.6,0-7.3,0.4-7.3,3.6c0,3.3,3.7,3.1,3.7,12.1c0,8.8-3.7,8.7-3.7,11.9C9.6,44.2,11.1,44.6,16.7,44.6z
		"/>
	<path class="st0" d="M68.1,36.6c0-0.8-0.4-1.4-1.3-1.4c-3.1,0-4.3,1.9-11,1.9h-8.3c-3.4,0-4.9-1.8-4.9-4.3c0-2.8,1.9-4.3,4.3-7.4
		L60.5,8.8h6.2L53.2,25.5c-4.8,5.9-9.1,4.6-9.1,7.6c0,1.2,0.6,1.7,1.7,1.7c2.7,0,4.4-2.6,11-2.6c5.9,0,7,1.7,10.1,1.7
		c0.9,0,1.3-0.4,1.3-1.1c0-1.9-3.4-3.6-3.4-8.9v-2.8h4.8v28.1h-4.9v-3.8C64.7,40.3,68.1,38.7,68.1,36.6z"/>
</g>
</svg>
