<?xml version="1.0" encoding="utf-8"?>
<!-- Generator: Adobe Illustrator 25.4.1, SVG Export Plug-In . SVG Version: 6.00 Build 0)  -->
<svg version="1.1" id="Layer_1" xmlns="http://www.w3.org/2000/svg" xmlns:xlink="http://www.w3.org/1999/xlink" x="0px" y="0px"
	 viewBox="0 0 77.7 58" style="enable-background:new 0 0 77.7 58;" xml:space="preserve">
<style type="text/css">
	.st0{fill:#636363;}
</style>
<g>
	<path class="st0" d="M6.2,41V17c0-5.5,3.7-8.2,10.4-8.2h8C31.3,8.8,35,11.5,35,17v24c0.1,5.5-3.7,8.2-10.4,8.2h-7.9
		C9.9,49.2,6.2,46.5,6.2,41z M14.8,44.6h11.8c5.6,0,7.3-0.4,7.3-3.6s-3.7-2.9-3.7-11.9c0-9.1,3.7-8.2,3.7-12.1
		c0-3.2-1.7-3.6-7.3-3.6H14.8c-5.6,0-7.3,0.4-7.3,3.6c0,3.3,3.7,3.1,3.7,12.1c0,8.8-3.7,8.7-3.7,11.9C7.7,44.2,9.1,44.6,14.8,44.6z"
		/>
	<path class="st0" d="M42.2,38.4v-3.3H47v5.5c0,4.8-1.1,7.4,2.2,7.4c2.4,0,2.4-3.5,7.6-3.5s5.1,3.5,7.6,3.5c3.3,0,2.2-2.6,2.2-7.4
		v-6.7c0-4.3,1.1-6.9-2.2-6.9c-2.4,0-1.9,3.2-6.8,3.2h-7c-6.7,0-8.5-3.9-8.5-9.3V19c0-5.3,1.2-10.2,8.8-10.2h18.7v4.7h-7.6
		c-9.1,0-8.5-3.3-12.6-3.3c-3.5,0-2.5,2.6-2.5,6.5v5c0,4.6-1.1,7.1,2.2,7.1c2.4,0,1.9-3.2,6.9-3.2H63c7.4,0,8.5,4.7,8.5,10.7v2.1
		c0,6.1-1.1,10.9-8.5,10.9H50.7C43.3,49.2,42.2,44.4,42.2,38.4z"/>
</g>
</svg>
