<?xml version="1.0" encoding="utf-8"?>
<!-- Generator: Adobe Illustrator 25.4.1, SVG Export Plug-In . SVG Version: 6.00 Build 0)  -->
<svg version="1.1" id="Layer_1" xmlns="http://www.w3.org/2000/svg" xmlns:xlink="http://www.w3.org/1999/xlink" x="0px" y="0px"
	 viewBox="0 0 77.7 58" style="enable-background:new 0 0 77.7 58;" xml:space="preserve">
<style type="text/css">
	.st0{fill:#636363;}
</style>
<g>
	<path class="st0" d="M6.3,41V17c0-5.5,3.7-8.2,10.4-8.2h8C31.3,8.8,35,11.5,35,17v24c0.1,5.5-3.7,8.2-10.4,8.2h-7.9
		C9.9,49.2,6.3,46.5,6.3,41z M14.8,44.6h11.8c5.6,0,7.3-0.4,7.3-3.6c0-3.2-3.7-2.9-3.7-11.9c0-9.1,3.7-8.2,3.7-12.1
		c0-3.2-1.7-3.6-7.3-3.6H14.8c-5.6,0-7.3,0.4-7.3,3.6c0,3.3,3.7,3.1,3.7,12.1c0,8.8-3.7,8.7-3.7,11.9C7.7,44.2,9.1,44.6,14.8,44.6z"
		/>
	<path class="st0" d="M42.3,39.2c0-5.3,3.9-12.4,5.8-16.3l6.7-14.1H60l-8.2,17.5h9.8c7.8,0,9.8,5.6,9.8,11.4c0,5.7-2,11.6-9.8,11.6
		h-9.1C45.9,49.2,42.3,45.1,42.3,39.2z M50.8,44.6h14.6c4.3,0,4.7-3.6,4.7-7c0-3.4-0.5-6.8-4.7-6.8h-6.1c-4.8,0-4.9-3.4-7.1-3.4
		c-1,0-1.2,0.7-2.8,2.6c-2.9,3.8-5.9,5.6-5.9,9.1C43.5,42.7,45.1,44.6,50.8,44.6z"/>
</g>
</svg>
