<?xml version="1.0" encoding="utf-8"?>
<!-- Generator: Adobe Illustrator 25.4.1, SVG Export Plug-In . SVG Version: 6.00 Build 0)  -->
<svg version="1.1" id="Layer_1" xmlns="http://www.w3.org/2000/svg" xmlns:xlink="http://www.w3.org/1999/xlink" x="0px" y="0px"
	 viewBox="0 0 77.7 58" style="enable-background:new 0 0 77.7 58;" xml:space="preserve">
<style type="text/css">
	.st0{fill:#636363;}
</style>
<g>
	<path class="st0" d="M6.7,41V17c0-5.5,3.7-8.2,10.4-8.2h8c6.7,0,10.4,2.7,10.4,8.2v24c0.1,5.5-3.7,8.2-10.4,8.2h-7.9
		C10.4,49.2,6.7,46.5,6.7,41z M15.3,44.6H27c5.6,0,7.3-0.4,7.3-3.6c0-3.2-3.7-2.9-3.7-11.9c0-9.1,3.7-8.2,3.7-12.1
		c0-3.2-1.7-3.6-7.3-3.6H15.3C9.6,13.4,8,13.8,8,17c0,3.3,3.7,3.1,3.7,12.1C11.7,37.9,8,37.8,8,41C8.2,44.2,9.6,44.6,15.3,44.6z"/>
	<path class="st0" d="M69.4,11.8c0-0.6-0.8-1.3-1.5-1.3c-1.4,0-2.9,2.8-8.8,2.8c-9.1,0-8.3-3.2-10.6-3.2c-2.2,0-2.6,1.1-2.6,2.6
		c0,0.8,0.2,2.2,0.6,7H42c-0.3-1.9-0.4-2.6-0.4-3.4c0-3.8,1.9-7.6,8.5-7.6h15.5c3.2,0,5.4,1.6,5.4,4.1c0,0.7-0.2,1.4-0.5,2.1
		L56.7,49.2h-5.5L63.2,21C65.8,15,69.4,13.3,69.4,11.8z"/>
</g>
</svg>
