<?xml version="1.0" encoding="utf-8"?>
<!-- Generator: Adobe Illustrator 25.4.1, SVG Export Plug-In . SVG Version: 6.00 Build 0)  -->
<svg version="1.1" id="Layer_1" xmlns="http://www.w3.org/2000/svg" xmlns:xlink="http://www.w3.org/1999/xlink" x="0px" y="0px"
	 viewBox="0 0 77.7 58" style="enable-background:new 0 0 77.7 58;" xml:space="preserve">
<style type="text/css">
	.st0{fill:#636363;}
</style>
<g>
	<path class="st0" d="M6.2,41V17c0-5.5,3.7-8.2,10.4-8.2h8c6.7,0,10.4,2.7,10.4,8.2v24c0.1,5.5-3.7,8.2-10.4,8.2h-7.9
		C9.9,49.2,6.2,46.5,6.2,41z M14.7,44.6h11.8c5.6,0,7.3-0.4,7.3-3.6s-3.7-2.9-3.7-11.9c0-9.1,3.7-8.2,3.7-12.1
		c0-3.2-1.7-3.6-7.3-3.6H14.7c-5.6,0-7.3,0.4-7.3,3.6c0,3.3,3.7,3.1,3.7,12.1c0,8.8-3.7,8.7-3.7,11.9C7.6,44.2,9.1,44.6,14.7,44.6z"
		/>
	<path class="st0" d="M42.2,38.4V19.6c0-6.1,1.1-10.9,8.5-10.9H63c7.4,0,8.5,4.8,8.5,10.9v18.7c0,6.1-1.1,10.9-8.5,10.9H50.7
		C43.3,49.2,42.2,44.4,42.2,38.4z M48.6,28.3c2.8,0,2.7-1.7,8.3-1.7c5.5,0,5.4,1.7,8.2,1.7c1.1,0,1.6-0.6,1.6-1.9v-9
		c0-4.8,1.1-7.4-2.2-7.4c-2.5,0-2.4,3.5-7.6,3.4c-5.3,0.1-5.2-3.4-7.7-3.4c-3.3,0-2.2,2.6-2.2,7.4v9C47,27.7,47.5,28.3,48.6,28.3z
		 M49.2,47.9c2.4,0,2.4-3.5,7.7-3.5c5.2,0,5.2,3.5,7.6,3.5c3.3,0,2.2-2.6,2.2-7.4v-8.9c0-1.3-0.5-1.9-1.6-1.9
		c-2.8,0-2.7,1.7-8.2,1.7c-5.6,0-5.5-1.7-8.3-1.7c-1.1,0-1.6,0.5-1.6,1.9v8.9C47,45.3,45.9,47.9,49.2,47.9z"/>
</g>
</svg>
