<?xml version="1.0" encoding="utf-8"?>
<!-- Generator: Adobe Illustrator 25.4.1, SVG Export Plug-In . SVG Version: 6.00 Build 0)  -->
<svg version="1.1" id="Layer_1" xmlns="http://www.w3.org/2000/svg" xmlns:xlink="http://www.w3.org/1999/xlink" x="0px" y="0px"
	 viewBox="0 0 77.7 58" style="enable-background:new 0 0 77.7 58;" xml:space="preserve">
<style type="text/css">
	.st0{fill:#636363;}
</style>
<g>
	<path class="st0" d="M6.5,41V17c0-5.5,3.7-8.2,10.4-8.2h8c6.7,0,10.4,2.7,10.4,8.2v24c0.1,5.5-3.7,8.2-10.4,8.2h-7.9
		C10.2,49.2,6.5,46.5,6.5,41z M15,44.6h11.8c5.6,0,7.3-0.4,7.3-3.6s-3.7-2.9-3.7-11.9c0-9.1,3.7-8.2,3.7-12.1c0-3.2-1.7-3.6-7.3-3.6
		H15c-5.6,0-7.3,0.4-7.3,3.6c0,3.3,3.7,3.1,3.7,12.1c0,8.8-3.7,8.7-3.7,11.9C7.9,44.2,9.4,44.6,15,44.6z"/>
	<path class="st0" d="M71.2,19.6v18.8c0,5.8-1.2,10.7-8.8,10.7H43.8v-4.7h7.6c9.1,0,8.5,3.3,12.6,3.3c3.5,0,2.5-2.6,2.5-6.5v-8.6
		c0-1.3-0.5-1.9-1.6-1.9c-2.8,0-2.9,1.6-7.7,1.6h-6.4c-7.6,0-8.8-4.9-8.8-10.7v-2.1c0-6.1,1.1-10.9,8.5-10.9h12.3
		C70.2,8.8,71.2,13.6,71.2,19.6z M49.1,31.1c4,0,3.6-3.2,8.5-3.2c4.5,0,4.4,1.6,7.2,1.6c1.1,0,1.6-0.5,1.6-1.9V17.5
		c0-4.8,1.1-7.4-2.2-7.4c-2.4,0-2.4,3.5-7.6,3.5s-5.1-3.5-7.6-3.5c-3.3,0-2.2,2.6-2.2,7.4v6.7C46.8,28.5,45.7,31.1,49.1,31.1z"/>
</g>
</svg>
