<?xml version="1.0" encoding="utf-8"?>
<!-- Generator: Adobe Illustrator 25.4.1, SVG Export Plug-In . SVG Version: 6.00 Build 0)  -->
<svg version="1.1" id="Layer_1" xmlns="http://www.w3.org/2000/svg" xmlns:xlink="http://www.w3.org/1999/xlink" x="0px" y="0px"
	 viewBox="0 0 77.7 58" style="enable-background:new 0 0 77.7 58;" xml:space="preserve">
<style type="text/css">
	.st0{fill:#636363;}
</style>
<g>
	<path class="st0" d="M10.5,44.6h4.6c3.8,0,4.4,3.3,5.5,3.3c0.7,0,1-0.4,1-1.3c0-2.9-1.9-3.4-1.9-10.1V16.7c0-3.9,1.1-6.5-2.3-6.5
		c-1.9,0-2.8,3.2-5.3,3.2h-1.7V8.8h5.3c7.6,0,8.8,4.9,8.8,10.7v17c0,6.7-1.8,7.2-1.8,10.1c0,0.8,0.3,1.3,1,1.3
		c1.2,0,1.7-3.3,5.5-3.3h3.4v4.6H10.5V44.6z"/>
	<path class="st0" d="M38.5,41V17c0-5.5,3.7-8.2,10.4-8.2h8c6.7,0,10.4,2.7,10.4,8.2v24c0.1,5.5-3.7,8.2-10.4,8.2h-7.9
		C42.1,49.2,38.5,46.5,38.5,41z M47,44.6h11.8c5.6,0,7.3-0.4,7.3-3.6c0-3.2-3.7-2.9-3.7-11.9c0-9.1,3.7-8.2,3.7-12.1
		c0-3.2-1.7-3.6-7.3-3.6H47c-5.6,0-7.3,0.4-7.3,3.6c0,3.3,3.7,3.1,3.7,12.1c0,8.8-3.7,8.7-3.7,11.9C39.9,44.2,41.4,44.6,47,44.6z"/>
</g>
</svg>
