<?xml version="1.0" encoding="utf-8"?>
<!-- Generator: Adobe Illustrator 25.4.1, SVG Export Plug-In . SVG Version: 6.00 Build 0)  -->
<svg version="1.1" id="Layer_1" xmlns="http://www.w3.org/2000/svg" xmlns:xlink="http://www.w3.org/1999/xlink" x="0px" y="0px"
	 viewBox="0 0 77.7 58" style="enable-background:new 0 0 77.7 58;" xml:space="preserve">
<style type="text/css">
	.st0{fill:#636363;}
</style>
<g>
	<path class="st0" d="M10.8,44.6h4.6c3.8,0,4.4,3.3,5.5,3.3c0.7,0,1-0.4,1-1.3c0-2.9-1.9-3.4-1.9-10.1V16.7c0-3.9,1.1-6.5-2.3-6.5
		c-1.9,0-2.8,3.2-5.3,3.2h-1.7V8.8h5.3c7.6,0,8.8,4.9,8.8,10.7v17c0,6.7-1.8,7.2-1.8,10.1c0,0.8,0.3,1.3,1,1.3
		c1.2,0,1.7-3.3,5.5-3.3h3.4v4.6H10.8V44.6z"/>
	<path class="st0" d="M38.6,48.1v-3.4H58c6.1,0,7.6-0.5,7.6-3.7c0-3.3-1.7-3.7-6.9-3.7h-5.3c-6.3,0-10.1-2.6-10.1-8.3
		c0-5.6,3.7-8.3,10.1-8.3h4.4c5.2,0,7.4-0.5,7.4-3.7c0-3.2-1.5-3.7-7.6-3.7H39.8V8.8h15.7c7.4,0,11,2.7,11,8.2
		c0,5.6-3.9,8.3-10.4,8.3h-4.9c-5.2,0-6.6,0.4-6.6,3.7s1.7,3.7,6.6,3.7h5.4c6.5,0,10.4,2.7,10.4,8.3c0,5.5-3.7,8.2-11,8.2h-7.6
		C44,49.2,40.9,48.8,38.6,48.1z"/>
</g>
</svg>
