<?xml version="1.0" encoding="utf-8"?>
<!-- Generator: Adobe Illustrator 25.4.1, SVG Export Plug-In . SVG Version: 6.00 Build 0)  -->
<svg version="1.1" id="Layer_1" xmlns="http://www.w3.org/2000/svg" xmlns:xlink="http://www.w3.org/1999/xlink" x="0px" y="0px"
	 viewBox="0 0 77.7 58" style="enable-background:new 0 0 77.7 58;" xml:space="preserve">
<style type="text/css">
	.st0{fill:#636363;}
</style>
<g>
	<path class="st0" d="M13.4,44.6H18c3.8,0,4.4,3.3,5.5,3.3c0.7,0,1-0.4,1-1.3c0-2.9-1.9-3.4-1.9-10.1V16.7c0-3.9,1.1-6.5-2.3-6.5
		c-1.9,0-2.8,3.2-5.3,3.2h-1.7V8.8h5.3c7.6,0,8.8,4.9,8.8,10.7v17c0,6.7-1.8,7.2-1.8,10.1c0,0.8,0.3,1.3,1,1.3
		c1.2,0,1.7-3.3,5.5-3.3h3.4v4.6H13.4V44.6z"/>
	<path class="st0" d="M62.8,36.6c0-0.8-0.4-1.4-1.3-1.4c-3.1,0-4.3,1.9-11,1.9h-8.3c-3.4,0-4.9-1.8-4.9-4.3c0-2.8,1.9-4.3,4.3-7.4
		L55.3,8.8h6.2L48,25.5c-4.8,5.9-9.1,4.6-9.1,7.6c0,1.2,0.6,1.7,1.7,1.7c2.7,0,4.4-2.6,11-2.6c5.9,0,7,1.7,10.1,1.7
		c0.9,0,1.3-0.4,1.3-1.1c0-1.9-3.4-3.6-3.4-8.9v-2.8h4.8v28.1h-4.9v-3.8C59.5,40.3,62.8,38.7,62.8,36.6z"/>
</g>
</svg>
