<?xml version="1.0" encoding="utf-8"?>
<!-- Generator: Adobe Illustrator 25.4.1, SVG Export Plug-In . SVG Version: 6.00 Build 0)  -->
<svg version="1.1" id="Layer_1" xmlns="http://www.w3.org/2000/svg" xmlns:xlink="http://www.w3.org/1999/xlink" x="0px" y="0px"
	 viewBox="0 0 77.7 58" style="enable-background:new 0 0 77.7 58;" xml:space="preserve">
<style type="text/css">
	.st0{fill:#636363;}
</style>
<g>
	<path class="st0" d="M10.9,44.6h4.6c3.8,0,4.4,3.3,5.5,3.3c0.7,0,1-0.4,1-1.3c0-2.9-1.9-3.4-1.9-10.1V16.7c0-3.9,1.1-6.5-2.3-6.5
		c-1.9,0-2.8,3.2-5.3,3.2h-1.7V8.8h5.3c7.6,0,8.8,4.9,8.8,10.7v17c0,6.7-1.8,7.2-1.8,10.1c0,0.8,0.3,1.3,1,1.3
		c1.2,0,1.7-3.3,5.5-3.3H33v4.6H10.9V44.6z"/>
	<path class="st0" d="M37.6,38.4v-3.3h4.8v5.5c0,4.8-1.1,7.4,2.2,7.4c2.4,0,2.4-3.5,7.6-3.5s5.1,3.5,7.6,3.5c3.3,0,2.2-2.6,2.2-7.4
		v-6.7c0-4.3,1.1-6.9-2.2-6.9c-2.4,0-1.9,3.2-6.8,3.2h-7c-6.7,0-8.5-3.9-8.5-9.3V19c0-5.3,1.2-10.2,8.8-10.2h18.7v4.7h-7.6
		c-9.1,0-8.5-3.3-12.6-3.3c-3.5,0-2.5,2.6-2.5,6.5v5c0,4.6-1.1,7.1,2.2,7.1c2.4,0,1.9-3.2,6.9-3.2h6.9c7.4,0,8.5,4.7,8.5,10.7v2.1
		c0,6.1-1.1,10.9-8.5,10.9H46.1C38.7,49.2,37.6,44.4,37.6,38.4z"/>
</g>
</svg>
