<?xml version="1.0" encoding="utf-8"?>
<!-- Generator: Adobe Illustrator 25.4.1, SVG Export Plug-In . SVG Version: 6.00 Build 0)  -->
<svg version="1.1" id="Layer_1" xmlns="http://www.w3.org/2000/svg" xmlns:xlink="http://www.w3.org/1999/xlink" x="0px" y="0px"
	 viewBox="0 0 77.7 58" style="enable-background:new 0 0 77.7 58;" xml:space="preserve">
<style type="text/css">
	.st0{fill:#636363;}
</style>
<g>
	<path class="st0" d="M10.3,44.6h4.6c3.8,0,4.4,3.3,5.5,3.3c0.7,0,1-0.4,1-1.3c0-2.9-1.9-3.4-1.9-10.1V16.7c0-3.9,1.1-6.5-2.3-6.5
		c-1.9,0-2.8,3.2-5.3,3.2h-1.7V8.8h5.3c7.6,0,8.8,4.9,8.8,10.7v17c0,6.7-1.8,7.2-1.8,10.1c0,0.8,0.3,1.3,1,1.3
		c1.2,0,1.7-3.3,5.5-3.3h3.4v4.6H10.3V44.6z"/>
	<path class="st0" d="M38.2,39.2c0-5.3,3.9-12.4,5.8-16.3l6.7-14.1H56l-8.2,17.5h9.8c7.8,0,9.8,5.6,9.8,11.4c0,5.7-2,11.6-9.8,11.6
		h-9.1C41.9,49.2,38.2,45.1,38.2,39.2z M46.8,44.6h14.6c4.3,0,4.7-3.6,4.7-7c0-3.4-0.5-6.8-4.7-6.8h-6.1c-4.8,0-4.9-3.4-7.1-3.4
		c-1,0-1.2,0.7-2.8,2.6c-2.9,3.8-5.9,5.6-5.9,9.1C39.5,42.7,41.1,44.6,46.8,44.6z"/>
</g>
</svg>
