<?xml version="1.0" encoding="utf-8"?>
<!-- Generator: Adobe Illustrator 25.4.1, SVG Export Plug-In . SVG Version: 6.00 Build 0)  -->
<svg version="1.1" id="Layer_1" xmlns="http://www.w3.org/2000/svg" xmlns:xlink="http://www.w3.org/1999/xlink" x="0px" y="0px"
	 viewBox="0 0 586.4 191.8" style="enable-background:new 0 0 586.4 191.8;" xml:space="preserve">
<style type="text/css">
	.st0{fill:#FFFF00;}
</style>
<path class="st0" d="M574.8,122.9c-0.2-9.8-6.5-14.7-18.1-14.7h-19.2v8.2H560c9.6,0,12.6,0.7,12.6,6.4c0,6.2-6.5,5.8-6.5,21.5
	c0,16,6.5,15.6,6.5,21.3c0,5.7-3,6.5-12.4,6.4h-7c-15.8,0-12.4,5.8-19.7,5.8c-6.2,0-4.3-4.6-4.3-11.6v-58.1h-8.6v53
	c0,10.4,2,19.2,15.6,19.2h20.3c11.6,0,18.3-4.8,18.1-14.7V122.9z M454.1,122.9c0,10,6.8,14.8,20.1,14.8h14.9
	c10.6,0,13.3,0.7,13.3,6.6c0,5.9-3.1,6.6-13.3,6.6h-14.9c-13.3,0-20.1,4.8-20.1,14.8c0,9.8,6.5,14.7,20.1,14.7h29.9v-8.1h-33.7
	c-11.2,0-13.9-0.9-13.9-6.5c0-5.9,3.1-6.6,13.9-6.6h14.9c12.6,0,19.5-4.7,19.5-14.8c0-9.9-6.5-14.8-19.5-14.8h-14.9
	c-10.8,0-13.9-0.9-13.9-6.6c0-5.7,2.7-6.5,13.9-6.5h33.7v-8.1h-29.9C460.6,108.3,454.1,113.1,454.1,122.9 M423,181.5
	c10.5,0,15.7-7.1,15.7-22.5v-50.7h-8.6v54.9c0,12.9,0.3,15.8-7.2,15.8c-7.5,0-7.1-3.2-7.1-15.8v-33.5c0-15.4-5.2-22.5-15.7-22.5
	c-10.5,0-15.6,7.4-15.6,22.5v33.5c0,12.6,0.3,15.8-7.2,15.8c-7.5,0-7.1-2.9-7.1-15.8v-54.9h-8.6V159c0,15.4,5.1,22.5,15.6,22.5
	c10.6,0,15.7-7.4,15.7-22.5v-33.5c0-12.6-0.4-15.8,7.1-15.8c7.5,0,7.2,2.9,7.2,15.8V159C407.3,174.1,412.5,181.5,423,181.5
	 M336,124.1v40.4c0,8.9,1.8,13.5-4.1,13.5c-5.2,0-5-6.2-15.8-6.2c-10.5,0-10.5,6.2-15.6,6.2c-5.9,0-4.1-4.6-4.1-13.5v-40.4
	c0-8.9-1.8-13.5,4.1-13.5c5.3,0,5.1,6.2,15.6,6.2c10.7,0,10.8-6.2,15.8-6.2C337.8,110.6,336,115.2,336,124.1 M329.4,108.3H303
	c-13.3,0-15.2,8.6-15.2,19.4V161c0,10.8,1.9,19.4,15.2,19.4h26.3c13.3,0,15.2-8.6,15.2-19.4v-33.4
	C344.5,116.8,342.6,108.3,329.4,108.3 M265.3,157c0,10.4,6,11.1,6,16.2c0,2-1.1,3.9-3.2,3.9c-2.5,0-3.9-3.1-7.9-8.5l-9.4-11.7
	c-6.8-8.7-14.3-4.3-14.3-12.9c0-5.4,3.1-6.1,12.2-6.1h5.2c11.8,0,18.7-4.8,18.7-14.8c0-9.8-6.5-14.7-18.7-14.7h-20.8
	c-13.6,0-15.6,8.8-15.6,19.2v52.9h8.6v-58c0-2.7-0.4-4.6-0.4-6.3c0-3.2,0.7-5.2,4.9-5.2c7.5,0,6.4,5.8,20.9,5.8h6
	c9.6,0,12.8,0.4,12.8,6.4c0,5.9-3.6,6.5-12.5,6.5H250c-9.1,0-15.9,4.8-15.9,14.3c0,6.5,2.6,9.3,6.8,14.7l11.4,13.8
	c4.3,5.5,7.3,8,12.8,8c4.3,0,8.7-2.1,8.7-9.5V157H265.3z M202.1,165.7c0-9.9-7-14.8-18.1-14.8h-4.8c-9.5,0-12.2-0.7-12.2-6.5
	c0-6,3-6.7,12-6.7h3.7c11.3,0,18.3-4.8,18.3-14.8c0-9.8-6.5-14.7-18.1-14.7h-17c-13.6,0-15.6,8.8-15.6,19.2v53h8.6v-58.1
	c0-7-1.9-11.6,4.3-11.6c7.3,0,6.1,5.8,21.8,5.8h1.3c9.7,0,12.4,0.7,12.4,6.4c0,5.9-3.1,6.6-12.1,6.6H183c-11.4,0-18.3,4.7-18.3,14.9
	c0,9.8,6.5,14.7,18.4,14.7h4.7c8.9,0,12,0.9,12,5.7c0,4.1-6.2,6.5-6.2,15.6h8.6V165.7z M118.3,172.1H95.6c-10.1,0-12.6-0.7-12.9-6.4
	c0-5.8,6.5-5.6,6.5-21.3c0-16-6.5-15.6-6.5-21.5c0-5.7,2.9-6.4,12.9-6.4h22.7c10.1,0,12.9,0.7,12.9,6.4c0,6.8-6.5,5.2-6.5,21.5
	c0,16,6.5,15.6,6.5,21.3C131.2,171.4,128.3,172.1,118.3,172.1 M133.5,165.7v-42.8c0-9.8-6.5-14.7-18.5-14.7h-16
	c-12,0-18.5,4.8-18.5,14.7v42.8c0,9.8,6.5,14.7,18.6,14.7h15.9C126.9,180.4,133.6,175.6,133.5,165.7 M52,172.3h-5.5
	c-15.9,0-14.9,5.7-22.1,5.7c-6.2,0-4.3-4.6-4.3-11.6v-58.1h-8.6v53c0,10.4,2,19.2,15.6,19.2h21.3c12,0,18.5-4.8,18.5-14.7
	c0-9.9-6.8-14.8-18.5-14.8h-7c-9.2,0-12.3-0.7-12.3-6.6c0-5.8,2.7-6.6,12.3-6.6h6.1c11.4,0,18.3-4.8,18.3-14.8
	c0-9.8-6.5-14.7-18.3-14.7H28v8.1h23.5c9.4,0,12.1,0.9,12.1,6.5c0,5.8-3.1,6.6-12.1,6.6h-6.1c-12,0-18.5,4.8-18.5,14.8
	c0,10.1,6.8,14.8,18.5,14.8h7c9.2,0,12.3,0.7,12.3,6.6C64.7,171.4,62,172.3,52,172.3"/>
<path class="st0" d="M559.3,45.6h-12v8.1h16.3c8.1,0,8.8,2.5,8.8,9.7c0,7.5-1.8,11.8-11.4,11.8h-25.7c-10.3,0-13.2-0.7-13.2-5.6
	c0-6.5,6.6-6.1,6.6-22.3c0-15.9-6.6-15.6-6.6-22.3c0-4.8,2.9-5.6,12.9-5.6h8.6c13.9,0,12.1-5.9,17.3-5.9c5.9,0,4.9,4.6,4.1,13.2
	l-0.7,10.4h8.2l0.7-6.5c1.1-10.7-1.6-19.4-14.9-19.4h-20c-12,0-18.6,4.8-18.5,14.7v42.8c-0.1,9.8,6.5,14.7,18.5,14.7h19.2
	c12.2,0,17.2-8.6,17.2-20C574.7,51.6,570.8,45.6,559.3,45.6 M481.7,66.4V32.7c0-15-6.2-22.4-16.5-22.4c-10.4,0-16.6,7.1-16.6,22.5
	v50.7h8.6V28.6c0-12.9-0.3-15.8,8-15.8c8,0,7.9,3.2,7.9,15.7v33.7c0,15,6.1,22.4,16.5,22.4c10.4,0,16.6-7.1,16.6-22.5V11.4h-8.6
	v54.9c0,12.9,0.2,15.8-8,15.8C481.4,82.1,481.7,78.9,481.7,66.4 M425.7,83.5h8.6V11.4h-8.6V83.5z M402.5,11.4v12.5
	c0,11.1,6.1,14,6.1,19.5c0,1.5-1.1,2.5-3.2,2.5c-4.6,0-6.8-2.9-15.4-2.9h-8.9c-8.7,0-11.8,2.9-16.4,2.9c-2.1,0-3.1-1-3.1-2.5
	c0-5.5,6-8.3,6-19.5V11.4H359v72.1h8.7V70.8c0-11.3-6-14.2-6-19.7c0-1.5,1-2.5,3.2-2.5c4.5,0,7.6,2.9,16.3,2.9h8.9
	c8.6,0,10.8-2.9,15.3-2.9c2.2,0,3.3,1,3.3,2.5c0,5.5-6.1,8.3-6.1,19.7v12.7h8.7V11.4H402.5z M350,11.4h-55.6v8.6h4.9
	c10.5,0,13.6-6,19-6c1.5,0,2.5,1,2.5,2.4c0,7.9-2.9,10.4-2.9,28.9v38.3h8.6V45.2c0-18.5-2.9-21-2.9-28.9c0-1.4,1-2.4,2.4-2.4
	c5.6,0,8.7,6,18.9,6h5.1V11.4z M236,26c0,10,6.8,14.8,20.1,14.8h14.9c10.6,0,13.3,0.7,13.3,6.6c0,5.9-3.1,6.6-13.3,6.6h-14.9
	c-13.3,0-20.1,4.8-20.1,14.8c0,9.8,6.5,14.7,20.1,14.7h29.9v-8.1h-33.7c-11.2,0-13.9-0.9-13.9-6.5c0-5.9,3.1-6.6,13.9-6.6h14.9
	c12.6,0,19.5-4.7,19.5-14.8c0-10-6.5-14.8-19.5-14.8h-14.9c-10.8,0-13.9-0.9-13.9-6.6c0-5.7,2.7-6.5,13.9-6.5h33.7v-8.1h-29.9
	C242.5,11.4,236,16.2,236,26 M207.4,10.3c-10.5,0-15.6,7.4-15.6,22.5v33.5c0,12.9,0.3,15.8-7.2,15.8s-7.1-3.2-7.1-15.8V32.8
	c0-15.1-5.1-22.5-15.7-22.5c-10.5,0-15.6,7.1-15.6,22.5v50.7h8.6V28.6c0-12.9-0.4-15.8,7.1-15.8S169,16,169,28.6v33.5
	c0,15.1,5.1,22.5,15.6,22.5s15.7-7.1,15.7-22.5V28.6c0-12.6-0.4-15.8,7.1-15.8c7.5,0,7.2,2.9,7.2,15.8v54.9h8.6V32.8
	C223.1,17.4,217.9,10.3,207.4,10.3 M122.1,27.2v40.4c0,8.9,1.8,13.5-4.1,13.5c-5.2,0-5-6.2-15.8-6.2c-10.5,0-10.5,6.2-15.6,6.2
	c-5.9,0-4.1-4.6-4.1-13.5V27.2c0-8.9-1.8-13.5,4.1-13.5c5.3,0,5.1,6.2,15.6,6.2c10.7,0,10.8-6.2,15.8-6.2
	C123.9,13.7,122.1,18.3,122.1,27.2 M115.5,11.4H89.2C75.9,11.4,74,19.9,74,30.8v33.4c0,10.8,1.9,19.4,15.2,19.4h26.3
	c13.3,0,15.2-8.6,15.2-19.4V30.8C130.7,19.9,128.8,11.4,115.5,11.4 M61.1,67.8v-9.1c0-11.1-6.5-15.9-19.8-15.9H28
	c-11.3,0-13.9-0.7-13.9-7.6v-8c0-6.7,2.7-7.6,13.9-7.6h31.5v-8.1H31.8c-13.6,0-20.1,4.8-20.1,15.7v8c0,11,6.5,15.7,20.1,15.7h13.4
	c10.9,0,13.6,0.9,13.6,7.8v9.1c0,6.7-2.7,7.6-14,7.6H13.1v8.1h27.8C54.6,83.5,61.1,78.7,61.1,67.8"/>
</svg>
